<?xml version="1.0" encoding="UTF-8"?>
<!DOCTYPE svg PUBLIC "-//W3C//DTD SVG 1.1//EN" "http://www.w3.org/Graphics/SVG/1.1/DTD/svg11.dtd">
<!-- Creator: CorelDRAW X7 -->
<svg xmlns="http://www.w3.org/2000/svg" xml:space="preserve" width="6.23591in" height="6in" version="1.1" style="shape-rendering:geometricPrecision; text-rendering:geometricPrecision; image-rendering:optimizeQuality; fill-rule:evenodd; clip-rule:evenodd"
viewBox="0 0 4882 4698"
 xmlns:xlink="http://www.w3.org/1999/xlink">
 <defs>
  <style type="text/css">
   <![CDATA[
    .fil0 {fill:#FEFEFE}
    .fil1 {fill:#373435}
   ]]>
  </style>
 </defs>
 <g id="Layer_x0020_1">
  <metadata id="CorelCorpID_0Corel-Layer"/>
  <g>
   <path class="fil0" d="M1704 2910c13,16 13,16 0,0l0 0zm-2 -2l0 0c-127,-157 -202,-353 -202,-569 -3,-509 417,-923 937,-927 520,-2 943,408 946,918 1,217 -73,413 -197,570l7 -10c-265,344 -385,591 -363,742l43 0c62,0 112,49 113,113 0,59 -50,112 -112,112l-13 0c-39,33 -39,69 0,112l14 2c62,-2 112,49 113,110 0,62 -50,113 -113,113 -46,36 -46,77 1,124 62,-2 113,49 113,110 0,62 -50,111 -112,111l-193 2c-40,91 -129,157 -232,157 -103,0 -193,-63 -234,-155l-194 2c-61,0 -112,-51 -112,-113 0,-61 50,-112 111,-112 47,-45 47,-88 0,-122 -62,0 -111,-49 -112,-112 0,-62 49,-111 111,-111l15 0c37,-45 36,-83 -2,-114l-14 0c-61,0 -111,-51 -112,-112 0,-61 50,-110 111,-110l42 -2c23,-151 -101,-398 -368,-739l8 10zm1414 -76c111,-142 172,-318 171,-502 -2,-461 -390,-824 -849,-820 -460,0 -844,365 -842,829 1,171 55,338 156,477l18 22c171,217 428,531 388,811l-12 83 -126 2c-8,0 -15,7 -14,15 -1,8 7,14 15,14l47 0 28 23c84,71 81,169 13,253l-29 32 -58 0c-8,0 -15,6 -15,15 0,8 7,16 15,14l32 2 26 18c99,76 95,186 11,268l-28 28 -39 0c-9,0 -15,6 -15,16 0,9 7,17 15,17l255 -2 27 57c26,57 81,96 145,96 65,0 119,-39 145,-98l25 -57 256 0c9,0 16,-8 16,-17 0,-8 -7,-14 -16,-14l-39 0 -29 -29c-85,-83 -90,-193 9,-267l26 -20 31 0c10,0 16,-6 16,-15 0,-10 -7,-16 -16,-16l-58 0 -29 -32c-69,-82 -73,-180 12,-252l26 -22 48 0c8,0 16,-8 16,-16 0,-9 -8,-17 -16,-15l-126 0 -11 -83c-43,-280 211,-598 379,-815z"/>
  </g>
  <path class="fil1" d="M2022 4318l853 -4c62,0 112,49 113,108 0,63 -49,115 -112,115l-853 2c-61,2 -111,-47 -112,-109 0,-61 50,-112 111,-112zm-3 -686l0 0 853 -2c62,0 112,49 113,111 0,61 -50,112 -112,112l-853 4c-61,0 -112,-51 -112,-112 0,-62 50,-113 111,-113zm2 339l0 0 853 -4c62,0 112,49 112,110 0,64 -50,113 -111,113l-854 4c-61,2 -111,-49 -111,-111 -1,-61 50,-112 111,-112z"/>
  <path class="fil1" d="M2296 2379c23,0 43,19 43,43l1 286c0,24 -19,45 -42,45 -25,-2 -44,-21 -45,-45l-1 -286c0,-22 19,-43 44,-43zm143 -53c24,0 45,25 45,55l1 368c0,28 -20,53 -43,53 -24,0 -44,-25 -44,-53l-2 -368c0,-30 19,-55 43,-55zm151 51c23,0 44,19 44,43l1 288c0,24 -20,43 -43,43 -25,0 -44,-19 -44,-43l-1 -288c0,-24 19,-43 43,-43z"/>
  <path class="fil1" d="M2189 2575l1 -65c-267,294 223,522 214,1122l47 -2 48 0c-16,-600 472,-830 204,-1124l0 65c144,258 -243,492 -252,1011 -1,-8 -1,-16 -1,-24l0 0c-1,-7 -1,-15 -2,-22l0 -2c0,-7 -1,-14 -2,-21l0 -2c0,-7 -1,-14 -2,-20l0 -3c-1,-7 -2,-13 -3,-19l0 -4c-1,-6 -2,-12 -3,-18l-1 -4c-1,-6 -2,-12 -3,-18l0 -4c-2,-6 -3,-12 -4,-17l-1 -5c-1,-6 -2,-11 -3,-17l-1 -4c-2,-5 -3,-11 -4,-16l-1 -5c-2,-5 -3,-11 -5,-16l-1 -4c-1,-5 -3,-11 -4,-16l-1 -4c-2,-5 -4,-11 -5,-16l-1 -3c-2,-6 -4,-11 -5,-17l-2 -3c-1,-5 -3,-11 -5,-16l-1 -2c-2,-6 -4,-11 -6,-17l-1 -2c-2,-6 -4,-11 -6,-17l0 -1c-2,-6 -5,-11 -7,-17l0 0c-51,-127 -115,-231 -160,-326l0 -1c-2,-4 -4,-8 -6,-12l-1 -3c-2,-3 -3,-7 -5,-10l-1 -3c-1,-4 -3,-7 -4,-10l-2 -4c-1,-3 -2,-6 -3,-9l-2 -5c-1,-2 -2,-5 -3,-8l-2 -5c-1,-2 -2,-5 -3,-8l-2 -5c0,-2 -1,-5 -2,-7l-2 -5c0,-3 -1,-5 -2,-8 0,-2 -1,-3 -1,-5 -1,-3 -1,-5 -2,-7l-1 -6c-1,-2 -1,-5 -2,-7 0,-2 -1,-4 -1,-5 0,-3 -1,-5 -1,-7 0,-2 -1,-4 -1,-6 0,-2 -1,-4 -1,-7 0,-2 0,-3 -1,-5 0,-2 0,-5 0,-7 0,-2 -1,-4 -1,-5 0,-3 0,-5 0,-7 0,-2 0,-4 0,-6 0,-2 0,-4 0,-6 0,-2 0,-4 0,-6 0,-2 0,-5 0,-7 0,-2 0,-3 1,-5 0,-2 0,-5 0,-7 0,-2 1,-4 1,-5 0,-3 1,-5 1,-7 0,-2 1,-4 1,-6 0,-2 1,-4 1,-6 1,-2 1,-4 1,-6 1,-2 2,-4 2,-7 1,-1 1,-3 2,-5 1,-2 1,-5 2,-7 1,-2 1,-3 2,-5 1,-2 2,-5 3,-7 0,-2 1,-4 2,-5 1,-3 2,-5 3,-8 1,-2 2,-3 2,-4 2,-5 4,-9 7,-13z"/>
  <path class="fil0" d="M2441 0l0 0c29,0 53,24 53,53l0 868c0,29 -24,53 -53,53l0 0c-29,0 -53,-24 -53,-53l0 -868c0,-29 24,-53 53,-53zm2438 1505l0 0c10,27 -4,58 -31,68l-904 328c-27,10 -57,-4 -67,-31l0 0c-10,-28 4,-58 31,-68l903 -329c28,-10 58,4 68,32zm-4876 0l0 0c-10,27 4,58 32,68l903 328c27,10 58,-4 68,-31l0 0c10,-28 -4,-58 -32,-68l-903 -329c-27,-10 -58,4 -68,32zm3552 -730l0 0c25,14 34,47 19,72l-167 290c-15,25 -47,34 -73,20l0 0c-25,-15 -33,-47 -19,-73l168 -290c14,-25 47,-34 72,-19zm-2228 0l0 0c-25,14 -33,47 -19,72l168 290c14,25 47,34 72,20l0 0c25,-15 34,-47 19,-73l-167 -290c-15,-25 -47,-34 -73,-19zm2783 2120l0 0c-17,24 -50,31 -74,14l-235 -158c-24,-17 -31,-50 -14,-74l0 0c16,-24 49,-30 73,-14l235 159c25,16 31,49 15,73zm-3337 0l0 0c16,24 49,31 73,14l236 -158c24,-17 30,-50 14,-74l0 0c-16,-24 -49,-30 -74,-14l-235 159c-24,16 -31,49 -14,73zm3118 971l0 0c-19,22 -52,26 -75,7l-494 -406c-23,-18 -26,-52 -7,-74l0 0c18,-23 52,-26 74,-8l494 406c23,19 26,52 8,75zm-2899 0l0 0c18,22 52,26 74,7l495 -406c22,-18 25,-52 7,-74l0 0c-19,-23 -52,-26 -75,-8l-494 406c-22,19 -26,52 -7,75z"/>
 </g>
</svg>
